<?xml version="1.0" encoding="utf-8"?>
<!-- Generator: Adobe Illustrator 16.0.0, SVG Export Plug-In . SVG Version: 6.00 Build 0)  -->
<!DOCTYPE svg PUBLIC "-//W3C//DTD SVG 1.1//EN" "http://www.w3.org/Graphics/SVG/1.1/DTD/svg11.dtd">
<svg version="1.1" id="图层_1" xmlns="http://www.w3.org/2000/svg" xmlns:xlink="http://www.w3.org/1999/xlink" x="0px" y="0px"
	 width="75px" height="75px" viewBox="0 0 75 75" enable-background="new 0 0 75 75" xml:space="preserve">
<path fill="#46C01B" d="M37.5,5.5c-17.645,0-32,14.355-32,32s14.355,32,32,32s32-14.355,32-32S55.145,5.5,37.5,5.5z M42.993,42.65
	L21.811,53.532L32.691,32.35l21.181-10.881L42.993,42.65z M40.143,39.284c1.066-1.067,1.066-2.796,0-3.862
	c-1.067-1.067-2.795-1.067-3.863,0c-1.067,1.066-1.067,2.795,0,3.862C37.348,40.351,39.075,40.351,40.143,39.284z"/>
</svg>
