<?xml version="1.0" encoding="utf-8"?>
<!-- Generator: Adobe Illustrator 16.0.0, SVG Export Plug-In . SVG Version: 6.00 Build 0)  -->
<!DOCTYPE svg PUBLIC "-//W3C//DTD SVG 1.1//EN" "http://www.w3.org/Graphics/SVG/1.1/DTD/svg11.dtd">
<svg version="1.1" id="图层_1" xmlns="http://www.w3.org/2000/svg" xmlns:xlink="http://www.w3.org/1999/xlink" x="0px" y="0px"
	 width="75px" height="75px" viewBox="0 0 75 75" enable-background="new 0 0 75 75" xml:space="preserve">
<g>
	<path fill="none" stroke="#999999" stroke-width="3" stroke-miterlimit="10" d="M58.22,59.135
		c-0.756-0.447-14.887-8.991-20.887-12.422v-6.029c5-2.613,8.208-8.352,8.208-15.029c0-9.136-6.345-16.542-14.146-16.542
		s-14.094,7.406-14.094,16.542c0,6.562,3.031,12.215,8.031,14.889v6.17c-6,3.431-20.13,11.975-20.887,12.422
		c-1.154,0.728-1.113,1.77-1.113,1.77V66h56v-5.096C59.333,60.904,59.374,59.862,58.22,59.135z"/>
	<g>
		<line fill="none" stroke="#999999" stroke-width="3" stroke-miterlimit="10" x1="71.833" y1="26" x2="55.833" y2="26"/>
		<line fill="none" stroke="#999999" stroke-width="3" stroke-miterlimit="10" x1="71.833" y1="50" x2="55.833" y2="50"/>
		<line fill="none" stroke="#999999" stroke-width="3" stroke-miterlimit="10" x1="71.833" y1="38" x2="51.833" y2="38"/>
	</g>
</g>
</svg>
