<?xml version="1.0" encoding="utf-8"?>
<!-- Generator: Adobe Illustrator 16.0.0, SVG Export Plug-In . SVG Version: 6.00 Build 0)  -->
<!DOCTYPE svg PUBLIC "-//W3C//DTD SVG 1.1//EN" "http://www.w3.org/Graphics/SVG/1.1/DTD/svg11.dtd">
<svg version="1.1" id="图层_1" xmlns="http://www.w3.org/2000/svg" xmlns:xlink="http://www.w3.org/1999/xlink" x="0px" y="0px"
	 width="75px" height="75px" viewBox="0 0 75 75" enable-background="new 0 0 75 75" xml:space="preserve">
<path fill="#46C01B" d="M59.983,57.594c-0.725-0.43-13.988-8.318-20.15-11.983v-4.312c5.039-3.122,8.25-9.253,8.25-15.895
	c0-9.948-7.01-18.042-15.625-18.042s-15.625,8.094-15.625,18.042c0,6.603,3.044,12.544,8,15.734v4.472l-1.487,0.884
	c-6.581,3.915-17.99,10.702-18.699,11.121c-1.834,1.156-1.82,2.902-1.813,3.039V67.5h59v-6.787
	C61.833,60.518,61.854,58.771,59.983,57.594z M56.833,24.5v3h16v-3H56.833z M56.833,51.5h16v-3h-16V51.5z M52.833,39.5h20v-3h-20
	V39.5z"/>
</svg>
